<svg version="1.1" id="Layer_1" xmlns="http://www.w3.org/2000/svg" xmlns:xlink="http://www.w3.org/1999/xlink" x="0px" y="0px" width="100px" height="100px" viewBox="0 0 100 100" enable-background="new 0 0 100 100" xml:space="preserve">
<path id="outline" d="M85.604,46.01v-7.061c0-5.216-4.407-9.459-9.824-9.459h-50.35c-5.418,0-9.826,4.243-9.826,9.459v7.061 c-5.549,0.21-10,4.599-10,9.98v7c0,5.38,4.451,9.77,10,9.979v13.063c0,5.215,4.408,9.457,9.826,9.457h50.35 c5.417,0,9.824-4.242,9.824-9.457V72.972c2.555-0.096,4.96-1.064,6.809-2.773c2.029-1.875,3.191-4.504,3.189-7.208v-7 C95.602,50.61,91.152,46.222,85.604,46.01z"/>
<path id="ears" fill="#9E005D" d="M90.604,62.99c0,2.762-2.422,5-5.412,5H16.015c-2.988,0-5.412-2.238-5.412-5v-7c0-2.76,2.424-5,5.412-5h69.174c2.99,0,5.412,2.24,5.412,5v7H90.604z"/> 
<path id="face" fill="#93278F" d="M80.604,86.033c0,2.461-2.16,4.457-4.824,4.457h-50.35c-2.666,0-4.826-1.996-4.826-4.457V38.949c0-2.463,2.16-4.459,4.826-4.459h50.35c2.664,0,4.824,1.996,4.824,4.459V86.033z"/> 
<g id="eyes">
<path d="M41.571,46.623c-2.244,0-4.07,1.731-4.07,3.86s1.826,3.86,4.07,3.86s4.07-1.731,4.07-3.86S43.815,46.623,41.571,46.623z"/>
<path d="M59.634,46.623c-2.242,0-4.067,1.731-4.067,3.86s1.825,3.86,4.067,3.86c2.243,0,4.068-1.731,4.068-3.86S61.877,46.623,59.634,46.623z"/>
</g> 
<g id="mouth">
<path fill="#FFFFFF" stroke="#000000" stroke-width="2" stroke-linecap="round" stroke-linejoin="round" stroke-miterlimit="10" d=" M70.854,76.343c0,2.761-2.422,5-5.412,5H36.265c-2.988,0-5.412-2.239-5.412-5v-2c0-2.761,2.424-5,5.412-5h29.174 c2.99,0,5.412,2.239,5.412,5v2H70.854z"/>
<line fill="none" stroke="#000000" stroke-miterlimit="10" x1="30.353" y1="75.343" x2="70.354" y2="75.343"/>
<line fill="none" stroke="#000000" stroke-miterlimit="10" x1="40.853" y1="69.843" x2="40.853" y2="80.843"/>
<line fill="none" stroke="#000000" stroke-miterlimit="10" x1="52.854" y1="69.843" x2="52.854" y2="80.843"/>
<line fill="none" stroke="#000000" stroke-miterlimit="10" x1="35.853" y1="69.843" x2="35.853" y2="80.843"/>
<line fill="none" stroke="#000000" stroke-miterlimit="10" x1="46.853" y1="69.843" x2="46.853" y2="80.843"/>
<line fill="none" stroke="#000000" stroke-miterlimit="10" x1="65.854" y1="69.843" x2="65.854" y2="80.843"/>
<line fill="none" stroke="#000000" stroke-miterlimit="10" x1="59.854" y1="69.843" x2="59.854" y2="80.843"/>
</g> 
<g id="text">
<path d="M33.621,15.975c-5.523-2.918,2.804-4.638,3.861-5.654c2.349-2.258-3.592-2.097-4.238-1.909c-3.032,0.881-4.081-2.389-1.229-3.732c4.467-2.101,12.549,0,10.881,6.238C41.861,14.789,36.962,15.4,33.621,15.975 C33.293,15.802,33.621,15.975,33.621,15.975z M32.667,19.764c0-3.61,5.552-3.61,5.552,0C38.219,23.375,32.667,23.375,32.667,19.764C32.667,18.974,32.667,20.555,32.667,19.764z"/>
<path d="M48.025,15.975c-5.523-2.918,2.804-4.639,3.861-5.654c2.35-2.258-3.592-2.097-4.238-1.909 C44.617,9.294,43.57,6.023,46.42,4.68c4.468-2.099,12.549-0.001,10.881,6.238C56.267,14.79,51.366,15.4,48.025,15.975 C47.697,15.802,48.025,15.975,48.025,15.975z M47.071,19.764c0-3.61,5.552-3.611,5.552,0 C52.623,23.375,47.071,23.375,47.071,19.764C47.071,18.974,47.071,20.555,47.071,19.764z"/>
<path d="M62.43,15.975c-5.524-2.918,2.803-4.637,3.86-5.654c2.348-2.258-3.59-2.097-4.237-1.909 c-3.032,0.881-4.081-2.388-1.229-3.732c4.466-2.101,12.55,0,10.882,6.238C70.67,14.789,65.771,15.4,62.43,15.975 C62.102,15.802,62.43,15.975,62.43,15.975z M61.475,19.764c0-3.61,5.553-3.611,5.553,0C67.027,23.375,61.475,23.375,61.475,19.764 C61.475,18.974,61.475,20.555,61.475,19.764z"/>
</g>
</svg>
