<svg version="1.1" id="Layer_1" xmlns="http://www.w3.org/2000/svg" xmlns:xlink="http://www.w3.org/1999/xlink" x="0px" y="0px" width="100px" height="100px" viewBox="0 0 100 100" enable-background="new 0 0 100 100" xml:space="preserve">
<path id="outline"  d="M89.703,47.076c-0.221-0.477-0.46-0.953-0.721-1.433c2.282-5.944,2.869-15.51-0.799-18.829 c-1.541-1.393-3.777-2.042-7.04-2.042c-3.58,0-11.662,0.962-16.076,4.747c-4.385-0.91-9.27-1.37-14.572-1.37 c-5.465,0-10.472,0.474-14.937,1.413c-4.393-3.817-12.514-4.79-16.135-4.79c-3.263,0-5.5,0.649-7.037,2.039 c-3.749,3.384-3.066,13.273-0.611,19.255c-2.449,4.936-3.551,14.043-3.551,18.981c0,18.929,16.198,30.688,42.272,30.688 s42.272-11.759,42.272-30.688C92.768,61.496,91.996,52.04,89.703,47.076z"/>
<path id="head" fill="#666666" d="M85.166,49.177c-0.543-1.173-1.188-2.252-1.881-3.279c2.68-3.685,3.33-13.759,1.545-15.374 c-2.209-1.997-16.826,0.143-17.723,4.632c-5.002-1.396-10.644-2.005-16.612-2.005c-6.139,0-11.917,0.62-17.024,2.071 c-0.766-4.535-15.516-6.705-17.735-4.698c-1.831,1.653-1.104,12.174,1.74,15.627c-0.423,0.657-0.817,1.343-1.183,2.06 c-1.975,3.891-3.07,12.326-3.07,16.838c0,17.618,16.688,25.688,37.272,25.688s37.272-8.068,37.272-25.688 C87.768,60.908,86.844,52.809,85.166,49.177z"/>
<g id="face">
<path fill="#FFFFFF" stroke="#000000" stroke-width="2" stroke-miterlimit="10" d="M80.68,72.277 c0,9.149-13.513,14.383-30.185,14.383S20.31,81.428,20.31,72.277c-0.002-2.342,0.886-6.726,2.486-8.748 c4.644-5.867,15.298-7.82,27.698-7.82c12.751,0,23.656,2.189,28.079,8.324C79.934,65.92,80.68,70.127,80.68,72.277z"/>
<g opacity="0.5">
<path fill="#F23C8B" d="M33.168,71.86c-2.788,0-5.056,2.27-5.056,5.06c0,2.788,2.268,5.058,5.056,5.058s5.056-2.27,5.056-5.058 C38.224,74.13,35.956,71.86,33.168,71.86z"/>
<path fill="#F23C8B" d="M67.45,71.86c-2.787,0-5.056,2.27-5.056,5.06c0,2.788,2.269,5.058,5.056,5.058 c2.788,0,5.057-2.27,5.057-5.058C72.507,74.13,70.238,71.86,67.45,71.86z"/>
</g>
</g>
<g id="nosemouth">
<ellipse cx="50.87" cy="75.34" rx="4.295" ry="2.418"/>
<path fill="none" stroke="#000000" stroke-width="1.7758" stroke-linecap="round" stroke-linejoin="round" stroke-miterlimit="10" d=" M28.802,74.648"/>
<path fill="none" stroke="#000000" stroke-width="1.7758" stroke-linecap="round" stroke-linejoin="round" stroke-miterlimit="10" d=" M29.783,78.748"/>
<polyline fill="none" stroke="#000000" stroke-width="1.7758" stroke-linecap="round" stroke-linejoin="round" stroke-miterlimit="10" points=" 47.497,82.721 50.805,80.758 50.88,76.918 "/>
<line fill="none" stroke="#000000" stroke-width="1.7758" stroke-linecap="round" stroke-linejoin="round" stroke-miterlimit="10" x1="54.604" y1="82.721" x2="50.805" y2="80.758"/>
</g>
<g id="eyes">
<path d="M33.168,64.044c-2.276,0-4.128,1.852-4.128,4.128s1.852,4.128,4.128,4.128s4.128-1.852,4.128-4.128 S35.444,64.044,33.168,64.044z"/>
<path d="M67.451,64.044c-2.276,0-4.129,1.852-4.129,4.128s1.853,4.128,4.129,4.128s4.128-1.852,4.128-4.128 S69.728,64.044,67.451,64.044z"/>
</g>
<g id="text">
<path d="M14.663,8.009c2.004,0,4.93,0.565,6.174,2.4c1.481,2.184,1.025,11.604-0.246,14.043c-0.385,0.742-0.91,1.359-1.576,1.851 c-2.38,1.761-6.768,1.943-9.357,0.723c-1.433-0.977-1.843-2.134-1.23-3.471c0.183-0.337,0.391-0.593,0.622-0.767 c1.813,1.002,4.616,1.677,6.566,0.578c0.617-0.348,0.926-0.906,0.926-1.678v-0.462c-2.291,1.005-5.558,0.657-7.42-1.085 c-0.589-0.549-1.062-1.258-1.417-2.126c-1.089-2.648-0.679-6.375,1.59-8.316C10.876,8.497,12.665,7.934,14.663,8.009 C15.762,8.009,13.582,8.009,14.663,8.009z M16.456,12.203c-1.037-0.587-2.882-0.457-3.688,0.448c-0.946,1.554-0.946,3.116,0,4.686 c1.185,0.922,2.415,0.984,3.688,0.188V12.203C16.32,12.126,16.456,12.203,16.456,12.203z"/>
<path d="M24.092,4.538c0-0.733,0.246-1.35,0.738-1.851c1.301-1.002,2.603-1.002,3.904,0c0.983,1.234,0.983,2.468,0,3.702 c-1.301,1.002-2.603,1.002-3.904,0C24.338,5.888,24.092,5.271,24.092,4.538S24.092,5.271,24.092,4.538z M29.24,22.471 c-1.223,0.216-3.091,0.659-4.194-0.174c-0.232-0.173-0.41-0.409-0.535-0.708c-1.189-2.811-0.265-9.928-0.188-12.944 c1.225-0.22,3.088-0.657,4.195,0.173c0.231,0.173,0.409,0.41,0.535,0.708C30.238,12.363,29.318,19.432,29.24,22.471L29.24,22.471 C29.028,22.509,29.24,22.471,29.24,22.471z"/>
<path d="M37.281,17.669c0,0.502,0.158,0.858,0.477,1.07c0.805,0.536,2.191,0.343,3.053,0.058c0.807,0.989,0.96,2.476-0.189,3.441 c-2.308,1.062-4.583,0.907-6.826-0.463c-2.95-2.48-1.776-12.984-1.374-16.138c1.224-0.335,3.021-0.556,4.15,0.159 c0.689,1.167,0.925,2.416,0.709,3.746h3.789c0.469,0.863,0.869,2.489,0.043,3.311c-1.195,0.606-2.472,0.756-3.832,0.449V17.669 C37.281,18.171,37.281,17.669,37.281,17.669z"/> 
<path d="M57.816,22.471c-1.139,0.343-3.162,0.596-4.194-0.174c-0.229-0.173-0.41-0.409-0.535-0.708 c-0.96-2.312,1.356-7.539-0.78-9.256c-0.907-0.729-2.474-0.573-3.399,0.015v10.124c-1.135,0.343-3.167,0.598-4.194-0.174 c-2.527-1.892-0.937-15.992-0.723-18.657c1.225-0.221,3.087-0.656,4.194,0.173c0.231,0.173,0.41,0.41,0.535,0.708 c0.275,1.318,0.338,2.653,0.188,4.005c2.247-0.857,5.417-0.77,7.305,0.911C58.788,11.739,58.241,19.501,57.816,22.471 L57.816,22.471C57.625,22.529,57.816,22.471,57.816,22.471z"/> 
<path d="M60.854,8.645c1.14-0.343,3.162-0.596,4.196,0.174c0.229,0.173,0.408,0.41,0.535,0.708 c0.979,2.346-1.317,7.266,0.767,9.082c0.832,0.729,2.478,0.624,3.412,0.159V8.645c1.137-0.343,3.165-0.597,4.195,0.174 c0.23,0.173,0.409,0.41,0.535,0.708c0.998,2.39,0.273,7.431,0.188,9.964c0,0.965-0.404,1.688-1.215,2.169 c-2.852,1.791-7.854,1.976-10.615-0.115c-0.637-0.481-1.127-1.104-1.475-1.866c-1.322-2.895-0.738-7.986-0.521-11.034H60.854 C61.047,8.587,60.854,8.645,60.854,8.645z"/> 
<path d="M77.746,3.67c1.155-0.351,3.171-0.644,4.225,0.144c0.229,0.173,0.403,0.41,0.521,0.708 c0.253,1.321,0.311,2.656,0.173,4.005c2.54-1.01,5.642-0.562,7.637,1.403c0.637,0.627,1.137,1.403,1.504,2.329 c0.739,2.165,0.734,4.329-0.014,6.493c-0.376,0.936-0.9,1.711-1.576,2.328c-2.841,2.603-8.168,2.496-11.195,0.319 c-0.848-0.598-1.271-1.369-1.271-2.314V3.67H77.746C77.938,3.612,77.746,3.67,77.746,3.67z M84.514,19.087 c3.053,0,3.605-4.484,2.053-6.335c-1.049-1.255-2.712-1.007-3.933-0.433v6.305C83.211,18.962,83.838,19.117,84.514,19.087C85.4,19.087,84.07,19.087,84.514,19.087z"/>
</g>
<g id="whiskers">
<line fill="none" stroke="#000000" stroke-width="1.7758" stroke-linecap="round" stroke-linejoin="round" stroke-miterlimit="10" x1="28.802" y1="74.648" x2="9.566" y2="73.297"/>
<line fill="none" stroke="#000000" stroke-width="1.7758" stroke-linecap="round" stroke-linejoin="round" stroke-miterlimit="10" x1="29.783" y1="78.748" x2="10.548" y2="80.17"/>
<line fill="none" stroke="#000000" stroke-width="1.7758" stroke-linecap="round" stroke-linejoin="round" stroke-miterlimit="10" x1="71.816" y1="74.648" x2="91.053" y2="73.297"/>
<line fill="none" stroke="#000000" stroke-width="1.7758" stroke-linecap="round" stroke-linejoin="round" stroke-miterlimit="10" x1="70.837" y1="78.748" x2="90.07" y2="80.17"/>
</g>
</svg>
