<svg version="1.1" id="Layer_1" xmlns="http://www.w3.org/2000/svg" xmlns:xlink="http://www.w3.org/1999/xlink" x="0px" y="0px" width="100px" height="100px" viewBox="0 0 100 100" enable-background="new 0 0 100 100" xml:space="preserve">
<path id="outline" d="M78.665,44.692H60.013c0.17-1.466,0.045-2.938-0.552-4.373c-1.379-3.307-4.083-5.281-7.234-5.281 c-2.312,0-4.447,1.054-6.143,2.618c-0.818-0.221-1.68-0.338-2.57-0.338c-0.389,0-0.773,0.03-1.153,0.076 c1.594-3.597,2.503-7.299,1.069-10.742c-2.271-5.448-6.443-6.036-8.131-6.036c-2.938,0-5.683,1.562-7.771,3.76 c-1.222-0.453-2.551-0.695-3.937-0.695c-3.062,0-5.928,1.225-7.863,3.36c-1.893,2.09-2.771,4.909-2.471,7.938 c0.584,5.909,5.442,8.415,9.223,10.199c-3.438,1.188-5.918,4.451-5.918,8.288v33.044c0,4.839,3.936,8.775,8.774,8.775h53.331 c4.838,0,8.774-3.937,8.774-8.775V53.467C87.439,48.628,83.503,44.692,78.665,44.692z"/> 
<g id="envelope">
<path fill="#FFFF00" d="M82.439,86.511c0,2.089-1.688,3.775-3.774,3.775H25.334c-2.086,0-3.774-1.688-3.774-3.775V53.467 c0-2.085,1.688-3.775,3.774-3.775h53.331c2.087,0,3.774,1.69,3.774,3.775V86.511z"/> 
<polyline fill="none" stroke="#000000" stroke-width="2" stroke-linecap="round" stroke-linejoin="round" stroke-miterlimit="10" points=" 21.92,50.684 51.456,75.152 80.666,49.789 "/> </g>
<g id="hearts">  
<path fill="#FF2600" d="M39.729,28.195c-1.23-2.951-3.089-3.57-4.431-3.57c-2.598,0-5.323,2.44-6.721,5.116 c-1.234-1.296-3.015-2.051-4.988-2.051c-1.933,0-3.716,0.745-4.892,2.043c-1.14,1.258-1.642,2.936-1.453,4.853 c0.384,3.889,3.956,5.565,7.409,7.187c2.758,1.294,5.61,2.633,6.827,5.056c0.169,0.337,0.513,0.546,0.885,0.546 c0.035,0,0.07-0.002,0.104-0.005c0.411-0.043,0.751-0.337,0.855-0.736c0.382-1.471,1.52-3.536,2.725-5.722 C38.446,36.563,41.162,31.635,39.729,28.195z"/>
<path fill="#FF2600" d="M55.76,41.862c-1.021-2.449-2.651-2.814-3.533-2.814c-1.981,0-3.959,1.699-5.067,3.642 c-0.947-0.865-2.233-1.362-3.646-1.362c-1.509,0-2.905,0.585-3.829,1.604c-0.898,0.991-1.294,2.306-1.147,3.806 c0.302,3.037,3.026,4.316,5.66,5.553c2.013,0.945,4.095,1.923,4.959,3.647c0.169,0.337,0.514,0.547,0.885,0.547 c0.035,0,0.07-0.002,0.104-0.006c0.411-0.044,0.751-0.337,0.855-0.736c0.276-1.065,1.118-2.591,2.008-4.206 C54.82,48.253,56.871,44.532,55.76,41.862z"/> 
</g> 	 
<g id="text"> 	 
<path d="M27.616,8.009c1.584-0.026,3.02,0.417,4.309,1.331c2.88-1.914,8.185-2.104,9.921,1.518 c1.413,2.962,0.705,8.483,0.491,11.613c-1.136,0.341-3.166,0.599-4.195-0.174c-0.23-0.173-0.409-0.409-0.534-0.708 c-0.484-1.148,1.063-13.226-3.571-9.154c0.535,2.193,0.039,7.758,0.028,10.037c-1.152,0.316-3.153,0.611-4.194-0.174 c-0.231-0.173-0.41-0.409-0.535-0.708c-0.855-2.028-0.277-5.948-0.188-8.084c0-1.963-2.187-1.835-3.355-1.185v10.152 c-1.134,0.343-3.167,0.598-4.194-0.174c-0.231-0.173-0.41-0.409-0.535-0.708c-0.752-1.785-1.018-9.533,0.145-11.15 C22.528,8.611,25.556,8.009,27.616,8.009C28.407,8.009,26.556,8.009,27.616,8.009z"/> 	 
<path d="M51.132,8.009c1.821-0.084,3.503,0.345,5.048,1.287c0.606,0.434,1.074,0.983,1.402,1.649 c0.88,1.788,1.432,8.518,0.072,10.065c-0.28,0.318-0.612,0.593-0.998,0.825c-2.489,1.493-7.544,1.694-10.167-0.03 c-0.588-0.385-1.041-0.877-1.359-1.475c-0.821-1.792-0.584-3.509,0.709-5.149c2.348-1.182,4.835-1.76,7.462-1.736v-0.203 c0-0.559-0.244-0.959-0.736-1.2c-1.77-0.867-4.444-0.258-6.147,0.448c-0.251-0.173-0.463-0.438-0.637-0.795 C44.183,8.406,49.176,8.009,51.132,8.009C52.173,8.009,50.456,8.009,51.132,8.009z M51.363,19.376 c0.684,0.012,1.339-0.113,1.967-0.376v-2.314c-1.171-0.022-2.309,0.152-3.413,0.521c-0.671,0.572-0.695,1.174-0.073,1.808 C50.144,19.256,50.648,19.376,51.363,19.376C51.689,19.376,50.648,19.376,51.363,19.376z"/>
<path d="M60.966,4.538c0-0.733,0.245-1.35,0.737-1.851c1.301-1.002,2.603-1.002,3.904,0c0.984,1.234,0.984,2.468,0,3.702 c-1.302,1.002-2.604,1.002-3.904,0C61.211,5.888,60.966,5.271,60.966,4.538S60.966,5.271,60.966,4.538z M66.113,22.471 c-1.225,0.216-3.089,0.658-4.194-0.174c-2.232-1.667-0.972-11.399-0.724-13.652c1.227-0.219,3.086-0.657,4.195,0.173 c0.23,0.173,0.409,0.41,0.534,0.708C67.109,12.363,66.19,19.432,66.113,22.471L66.113,22.471 C65.9,22.509,66.113,22.471,66.113,22.471z"/>
<path d="M74.242,22.471c-1.227,0.217-3.087,0.657-4.195-0.174c-0.23-0.173-0.408-0.409-0.533-0.708 c-1.386-3.262-0.25-14.383-0.188-17.948c1.225-0.22,3.089-0.658,4.194,0.173c0.231,0.173,0.41,0.41,0.535,0.708 C75.438,7.828,74.306,18.867,74.242,22.471L74.242,22.471C74.029,22.509,74.242,22.471,74.242,22.471z"/>
</g>
</svg>
