<svg version="1.1" id="Layer_1" xmlns="http://www.w3.org/2000/svg" xmlns:xlink="http://www.w3.org/1999/xlink" x="0px" y="0px" width="100px" height="100px" viewBox="0 0 100 100" enable-background="new 0 0 100 100" xml:space="preserve"> 
<path id="outline" d="M97.465,62.828l-9.198-18.885c-1.595-3.28-4.689-5.4-7.884-5.4c-0.793,0-1.56,0.13-2.291,0.38 c-3.35-0.213-7.81-0.891-10.772-1.904c0.014-0.32,0.035-0.713,0.067-1.193c0.23-3.43,0.932-13.867-10.037-16.197 c-1.084-0.23-2.199-0.348-3.314-0.348c-5.499,0-10.814,2.817-14.219,7.537c-3.861,5.356-7.792,9.233-12.883,13.751 c-0.792,0.702-1.61,1.399-2.435,2.102c-3.312,2.817-7.065,6.01-9.87,10.218c-3.251,4.876-7.792,16.74-9.625,21.706 c-3.088,2.257-3.999,6.776-2,10.878l0.87,1.785c1.598,3.279,4.693,5.398,7.885,5.398c1.087,0,2.128-0.238,3.089-0.708l13.579-6.612 l10.773,9.54l0.147,0.145c0.107,0.104,0.217,0.204,0.332,0.297c1.604,1.436,3.541,2.221,5.499,2.221c0,0,0,0,0,0 c1.083,0,2.119-0.237,3.078-0.705l46.138-22.473C98.332,72.44,99.68,67.374,97.465,62.828z M24.069,65.173 c0.88-1.917,1.687-3.506,2.312-4.444c1.709-2.562,4.534-4.967,7.27-7.296c0.901-0.767,1.794-1.527,2.662-2.296 c5.813-5.161,10.344-9.646,14.962-16.053c0.465-0.645,1.259-1.329,2.086-1.579c-0.014,0.369-0.037,0.824-0.075,1.387 c-0.22,3.294-0.648,9.999,5.139,13.549L24.069,65.173z"/>
<path id="body" fill="#FBB03B" d="M93.23,64.891l-9.199-18.888c-1.04-2.139-3.137-3.268-4.678-2.517l-0.399,0.194 c-4.282-0.162-11.565-1.146-15.455-3.165c-0.956-0.496-1.022-1.881-0.812-5.004c0.246-3.663,0.658-9.793-6.317-11.275 c-4.677-0.995-9.675,1.098-12.733,5.336c-4.113,5.707-8.244,9.787-13.578,14.521c-0.815,0.723-1.658,1.441-2.509,2.166 c-3.228,2.746-6.565,5.586-9.003,9.244c-3.487,5.23-9.151,20.778-9.712,22.328L8.139,78.17c-1.541,0.754-1.946,3.098-0.902,5.239 l0.871,1.786c1.043,2.141,3.139,3.271,4.678,2.52l16.408-7.99l13.269,11.75c0.009,0.008,0.016,0.017,0.021,0.025l0.164,0.161v-0.015 c1.078,1.057,2.451,1.487,3.547,0.953L92.33,70.128C93.869,69.377,94.273,67.031,93.23,64.891z M38.713,63.28l-5.497,2.678 l-18.232,8.879c2.014-5.262,5.318-13.479,7.479-16.722c2.075-3.111,5.157-5.734,8.137-8.271c0.877-0.746,1.746-1.486,2.586-2.229 c5.573-4.947,9.904-9.23,14.27-15.287c1.494-2.07,4.469-4.22,7.933-3.484c2.633,0.559,2.906,1.784,2.598,6.352 c-0.211,3.166-0.504,7.503,3.344,9.5c2.842,1.476,6.715,2.203,10.31,2.548L38.713,63.28z"/>
<g id="keys">
<rect x="39.389" y="64.6" transform="matrix(-0.899 0.4379 -0.4379 -0.899 156.5916 112.0578)" fill="#FFFFFF" stroke="#000000" stroke-width="1.884" stroke-linecap="round" stroke-linejoin="round" stroke-miterlimit="10" width="51.973" height="18.968"/>
<line fill="none" stroke="#000000" stroke-width="1.0156" stroke-miterlimit="10" x1="71.34" y1="61.045" x2="79.646" y2="78.1"/>
<line fill="none" stroke="#000000" stroke-width="1.0156" stroke-miterlimit="10" x1="64.514" y1="64.395" x2="72.816" y2="81.447"/>
<line fill="none" stroke="#000000" stroke-width="1.0156" stroke-miterlimit="10" x1="58.762" y1="67.189" x2="67.066" y2="84.242"/>
<line fill="none" stroke="#000000" stroke-width="1.0156" stroke-miterlimit="10" x1="52.512" y1="70.674" x2="60.816" y2="87.729"/>
<line fill="none" stroke="#000000" stroke-width="1.0156" stroke-miterlimit="10" x1="45.918" y1="75.384" x2="54.223" y2="92.439"/>
<path fill="none" stroke="#000000" stroke-width="0.8256" stroke-miterlimit="10" d="M43.789,74.486"/>
<line fill="none" stroke="#000000" stroke-width="1.0156" stroke-miterlimit="10" x1="77.689" y1="57.592" x2="85.994" y2="74.646"/>
<rect x="45.332" y="73.433" transform="matrix(-0.8988 0.4384 -0.4384 -0.8988 124.6027 129.8336)" width="3.96" height="11.738"/>
<rect x="52.979" y="70.141" transform="matrix(-0.8992 0.4375 -0.4375 -0.8992 137.6363 120.3109)" width="3.962" height="11.737"/>
<rect x="65.285" y="63.708" transform="matrix(-0.8992 0.4376 -0.4376 -0.8992 158.1987 102.7002)" width="3.963" height="11.739"/>
<rect x="71.988" y="60.31" transform="matrix(-0.8988 0.4383 -0.4383 -0.8988 169.4597 93.24)" width="3.961" height="11.737"/>
<rect x="78.745" y="57.428" transform="matrix(-0.8992 0.4375 -0.4375 -0.8992 181.0065 84.8954)" width="3.96" height="11.737"/>
</g>
<g id="text">
<path d="M20.076,7.5c1.584-0.026,3.02,0.417,4.309,1.331C26.806,7.216,30.56,6.872,32.99,8.7c0.55,0.415,0.988,0.965,1.316,1.649 c1.413,2.962,0.705,8.482,0.491,11.612c-1.135,0.349-3.165,0.594-4.195-0.173c-0.23-0.174-0.409-0.41-0.534-0.709 c-0.963-2.286,1.38-7.701-0.68-9.343c-0.801-0.634-2.162-0.455-2.891,0.188c0.537,2.176,0.039,7.774,0.028,10.037 c-1.153,0.322-3.15,0.608-4.194-0.173c-0.231-0.174-0.41-0.41-0.535-0.709c-0.855-2.028-0.277-5.947-0.188-8.084 c0-0.579-0.179-0.998-0.535-1.259c-0.895-0.652-1.961-0.403-2.82,0.072V21.96c-1.134,0.349-3.165,0.594-4.194-0.173 c-0.231-0.174-0.41-0.41-0.535-0.709c-0.751-1.784-1.019-9.536,0.145-11.15C14.992,8.095,18.012,7.5,20.076,7.5 C20.867,7.5,19.016,7.5,20.076,7.5z"/>
<path d="M37.807,8.137c1.135-0.35,3.165-0.595,4.195,0.173c0.231,0.174,0.409,0.41,0.535,0.709 c0.981,2.346-1.319,7.267,0.767,9.082c0.83,0.729,2.479,0.625,3.413,0.16V8.137c1.135-0.349,3.165-0.596,4.194,0.173 c0.231,0.174,0.409,0.41,0.534,0.709c1.006,2.368,0.273,7.45,0.188,9.965c0,0.964-0.405,1.688-1.215,2.169 c-2.85,1.793-7.855,1.974-10.616-0.115c-0.637-0.482-1.128-1.104-1.476-1.866C37.006,16.274,37.589,11.187,37.807,8.137 L37.807,8.137C37.999,8.078,37.807,8.137,37.807,8.137z"/>
<path d="M66.5,17.797c0,1.466-0.55,2.613-1.648,3.442c-1.965,1.481-8.127,2.146-10.051-0.376c-0.512-0.808-0.555-1.633-0.13-2.474 c0.192-0.317,0.425-0.583,0.694-0.795c1.488,0.823,4.125,1.834,5.799,0.925c0.592-0.416,0.635-0.859,0.13-1.331 c-2.07-1.367-3.185,0.126-5.769-2.097c-1.322-1.572-1.578-3.226-0.767-4.96c0.308-0.578,0.742-1.06,1.302-1.446 c2.159-1.486,7.435-2.134,9.344,0.247c0.482,0.756,0.535,1.538,0.158,2.343c-0.164,0.318-0.371,0.584-0.621,0.796 c-1.277-0.801-3.908-1.271-5.321-0.68c-0.606,0.361-0.684,0.762-0.231,1.201c2.156,1.516,3.168-0.312,5.943,2.328 C66.109,15.662,66.5,16.621,66.5,17.797C66.5,19.263,66.5,16.621,66.5,17.797z"/>
<path d="M68.756,4.029c0-2.327,3.012-3.517,4.641-1.852c0.984,1.234,0.984,2.469,0,3.703c-1.301,1.004-2.603,1.004-3.903,0 C69.001,5.379,68.756,4.763,68.756,4.029C68.756,3.297,68.756,4.763,68.756,4.029z M73.904,21.962 c-1.227,0.225-3.086,0.652-4.195-0.173c-2.232-1.684-0.972-11.386-0.723-13.652c1.224-0.227,3.088-0.653,4.193,0.173 c2.232,1.676,0.972,11.392,0.723,13.652H73.904C73.691,22.001,73.904,21.962,73.904,21.962z"/>
<path d="M84.953,11.376c-0.951-0.013-1.785,0.291-2.502,0.911c-0.318,0.299-0.574,0.67-0.768,1.113 c-1.762,4.064,2.774,5.972,5.871,4.511c0.387,0.271,0.676,0.563,0.868,0.882c2.893,4.779-7.893,3.337-9.791,1.591 c-0.704-0.646-1.249-1.422-1.634-2.328c-0.787-2.114-0.772-4.23,0.043-6.349c1.503-3.467,6.944-5.718,10.342-3.455 c1.564,1.044,1.339,2.711,0.26,3.788C86.797,11.622,85.9,11.401,84.953,11.376C84.471,11.376,85.492,11.376,84.953,11.376z"/>
</g>
</svg>
