<svg version="1.1" id="Layer_1" xmlns="http://www.w3.org/2000/svg" xmlns:xlink="http://www.w3.org/1999/xlink" x="0px" y="0px" width="100px" height="100px" viewBox="0 0 100 100" enable-background="new 0 0 100 100" xml:space="preserve">
<path id="outline" d="M83.7,53.6C81.3,37.5,67.4,25.1,50.6,25.1c-16.7,0-30.7,12.4-33.1,28.4h-0.9c-5.9,0-14,0-14,7.9c0,3.1,2.2,7.699,6,10.399 c0.7,3.2,3.7,8.7,15.7,8.7c0.3,0,0.7,0,1,0C31.6,87.7,40.8,92,50.5,92s18.9-4.3,25.2-11.5c8.6-0.5,14.7-3.8,16-8.6 c3.8-2.7,6.1-7.301,6.1-10.4C98,54.4,90.3,53.7,83.7,53.6z"/>
<path id="body" fill="#29ABE2" d="M93,61.5c0-3.1-6.1-2.9-13.6-2.9c-0.101,0-0.2,0-0.301,0l0,0C79.1,42.9,66.4,30.2,50.7,30.2 S22.2,42.9,22.2,58.6c0,0.101,0,0.101,0,0.2c-1.1-0.1-2.3-0.2-3.6-0.2c-7.5,0-10.9-0.199-10.9,2.9c0,1.9,2.4,6.3,6.1,7.3 c-0.2,0.4-0.3,0.7-0.3,1.101c0,3.1,3.4,5.6,10.9,5.6c1.1,0,2.2-0.1,3.3-0.2C32.9,82.3,41.2,86.9,50.6,86.9 C59.9,86.9,68.2,82.4,73.4,75.5c0.1,0,0.1,0,0.199,0c7.5,0,13.601-2.5,13.601-5.6c0-0.4-0.101-0.801-0.3-1.101 C90.5,67.8,93,63.5,93,61.5z"/>
<g id="legs">
<path fill="#FF0000" d="M38.3,89l2.4-7.3c0.1-0.3,0-0.7-0.1-1c-0.2-0.3-0.5-0.5-0.8-0.601C39.1,79.9,38.4,80.4,38.2,81l-2.4,7.2 l-4.2,2.3c-0.3,0.2-0.5,0.5-0.6,0.8s-0.1,0.7,0.1,1c0.2,0.4,0.7,0.7,1.2,0.7c0.2,0,0.4-0.1,0.6-0.2l1.9-1l-0.6,2 c-0.2,0.7,0.2,1.4,0.9,1.7c0.1,0,0.3,0.1,0.4,0.1c0.6,0,1.1-0.399,1.3-0.899l0.5-1.601l1.1,2.601c0.2,0.5,0.7,0.8,1.2,0.8 c0.2,0,0.4,0,0.5-0.1c0.3-0.101,0.6-0.4,0.7-0.7c0.1-0.3,0.1-0.7,0-1L38.3,89z"/>
<path fill="#FF0000" d="M69.4,90.5L65.1,88.2L62.3,81c-0.2-0.7-1-1.1-1.7-0.9c-0.699,0.2-1.1,1-0.899,1.7l2.899,7.3l-2.3,5.5 c-0.3,0.7,0,1.5,0.7,1.7c0.2,0.101,0.3,0.101,0.5,0.101c0.5,0,1-0.301,1.2-0.801l1.1-2.6l0.5,1.6c0.2,0.601,0.7,0.9,1.3,0.9 c0.101,0,0.301,0,0.4-0.1c0.3-0.101,0.6-0.301,0.8-0.601s0.2-0.7,0.101-1l-0.601-2l1.9,1C68.4,92.9,68.6,93,68.8,93 c0.5,0,0.9-0.3,1.2-0.7C70.2,91.6,70,90.8,69.4,90.5z"/>
</g>
<g id="beak">
<path fill="#FFA900" d="M42.8,63.3c0,0.101,0,0.101,0,0.2c0,2.4,3.7,4.3,8.3,4.3c4.601,0,8.301-1.899,8.301-4.3c0-0.1,0-0.1,0-0.2 H42.8z"/>
<path fill="#FFA900" d="M51,57.6c-4.4,0-8,1.801-8.2,4.101h16.5C59.1,59.5,55.5,57.6,51,57.6z"/>
</g>
<g id="eyes">
<path d="M39.4,49.7c-2.1,0-3.9,1.7-3.9,3.899c0,2.101,1.7,3.9,3.9,3.9c2.2,0,3.9-1.7,3.9-3.9C43.3,51.4,41.5,49.7,39.4,49.7z"/>
<path d="M61.3,49.7c-2.1,0-3.899,1.7-3.899,3.899c0,2.2,1.699,3.9,3.899,3.9s3.9-1.7,3.9-3.9C65.2,51.4,63.5,49.7,61.3,49.7z"/>
</g>
<g id="text">
<path d="M10.8,18c0,0.5,0.2,0.9,0.5,1.1c0.3,0.2,0.8,0.3,1.3,0.3c0.3,0,0.6,0,0.9-0.1c0.3-0.1,0.6-0.1,0.8-0.2 c0.2,0.2,0.3,0.4,0.4,0.7c0.1,0.3,0.2,0.6,0.2,0.9c0,0.7-0.3,1.3-0.8,1.8s-1.5,0.7-2.9,0.7c-1.7,0-3-0.4-3.9-1.2 c-0.9-0.8-1.4-2-1.4-3.8V6c0.2-0.1,0.5-0.1,0.9-0.2c0.4,0,0.9-0.1,1.3-0.1c0.8,0,1.5,0.2,2,0.4C10.6,6.4,10.8,7,10.8,8v1.9h3.8 c0.1,0.2,0.2,0.5,0.3,0.8c0.1,0.3,0.2,0.7,0.2,1.1c0,0.7-0.1,1.2-0.4,1.5c-0.3,0.3-0.7,0.4-1.2,0.4h-2.6V18H10.8z"/>
<path d="M25.4,22.4c-0.3,0.2-0.6,0.4-1.1,0.6s-1,0.2-1.6,0.2c-0.8,0-1.5-0.1-2.1-0.3c-0.6-0.2-1-0.5-1.2-0.9 c-0.2-0.5-0.5-1.2-0.7-2.2c-0.3-1-0.6-2.1-0.8-3.3c-0.3-1.2-0.5-2.4-0.8-3.6c-0.2-1.2-0.4-2.3-0.6-3.3c0.3-0.3,0.6-0.5,1.1-0.7 c0.5-0.2,0.9-0.3,1.5-0.3c0.7,0,1.2,0.2,1.7,0.4c0.4,0.3,0.7,0.8,0.8,1.5c0.2,1.5,0.4,2.7,0.5,3.6c0.1,1,0.2,1.7,0.3,2.3 s0.2,1.1,0.2,1.4c0,0.3,0.1,0.6,0.1,0.8h0.1c0.1-0.3,0.2-0.8,0.3-1.3c0.1-0.6,0.3-1.3,0.5-2c0.2-0.8,0.4-1.6,0.6-2.4 c0.2-0.9,0.4-1.7,0.6-2.6c0.4-0.2,0.8-0.4,1.1-0.5c0.4-0.1,0.8-0.2,1.4-0.2c0.7,0,1.3,0.1,1.7,0.3c0.5,0.2,0.8,0.5,0.9,1 c0.2,0.8,0.5,1.7,0.7,2.5c0.2,0.8,0.4,1.5,0.6,2.2c0.2,0.7,0.3,1.3,0.5,1.8c0.1,0.5,0.2,1,0.3,1.3h0.1c0.2-1.5,0.4-3,0.6-4.6 c0.2-1.6,0.4-3.2,0.6-4.9C33.6,9,34,8.8,34.4,8.7c0.4-0.1,0.8-0.1,1.2-0.1c0.7,0,1.2,0.1,1.7,0.4c0.4,0.3,0.7,0.8,0.7,1.5 c0,0.3,0,0.8-0.1,1.4s-0.2,1.3-0.4,2.1s-0.3,1.6-0.5,2.4c-0.2,0.8-0.4,1.7-0.6,2.5c-0.2,0.8-0.4,1.5-0.6,2.1 c-0.2,0.6-0.3,1.1-0.5,1.5c-0.3,0.2-0.7,0.4-1.2,0.6c-0.6,0.1-1.2,0.2-1.8,0.2c-1.6,0-2.6-0.4-2.9-1.2c-0.1-0.3-0.3-0.8-0.4-1.3 c-0.2-0.5-0.4-1.1-0.5-1.7c-0.2-0.6-0.4-1.3-0.5-2c-0.2-0.7-0.3-1.3-0.4-2c-0.1,0.7-0.3,1.4-0.5,2.1c-0.2,0.7-0.4,1.4-0.6,2.1 c-0.2,0.7-0.4,1.3-0.6,1.9C25.7,21.6,25.5,22.1,25.4,22.4z"/>
<path d="M40.2,4.9c0-0.7,0.2-1.3,0.7-1.9s1.1-0.8,2-0.8c0.8,0,1.5,0.3,2,0.8s0.7,1.1,0.7,1.9c0,0.7-0.2,1.4-0.7,1.9s-1.1,0.8-2,0.8 s-1.5-0.2-2-0.8C40.4,6.2,40.2,5.6,40.2,4.9z M45.3,22.8c-0.2,0-0.5,0.1-0.9,0.2s-0.8,0.1-1.3,0.1c-0.4,0-0.8,0-1.1-0.1 s-0.6-0.2-0.9-0.3c-0.2-0.2-0.4-0.4-0.5-0.7s-0.2-0.7-0.2-1.2V9c0.2,0,0.5-0.1,0.9-0.2c0.4-0.1,0.8-0.1,1.3-0.1s0.8,0,1.1,0.1 C44,8.9,44.3,9,44.6,9.1c0.2,0.2,0.4,0.4,0.5,0.7c0.1,0.3,0.2,0.7,0.2,1.2V22.8z"/>
<path d="M53.4,18c0,0.5,0.199,0.9,0.5,1.1c0.3,0.2,0.8,0.3,1.3,0.3c0.3,0,0.6,0,0.899-0.1c0.301,0,0.601-0.1,0.801-0.2 c0.199,0.2,0.3,0.4,0.399,0.7c0.101,0.3,0.2,0.6,0.2,0.9c0,0.7-0.3,1.3-0.8,1.8c-0.601,0.5-1.5,0.7-2.9,0.7c-1.7,0-3-0.4-3.9-1.2 s-1.4-2-1.4-3.8V6c0.2-0.1,0.5-0.1,0.9-0.2c0.4-0.1,0.8-0.1,1.3-0.1c0.8,0,1.5,0.2,2,0.4C53.2,6.3,53.4,7,53.4,8v1.9h3.8 c0.1,0.2,0.2,0.5,0.3,0.8c0.1,0.3,0.2,0.7,0.2,1.1c0,0.7-0.101,1.2-0.4,1.5c-0.3,0.3-0.7,0.4-1.2,0.4h-2.6V18H53.4z"/>
<path d="M65,18c0,0.5,0.2,0.9,0.5,1.1c0.3,0.2,0.8,0.3,1.3,0.3c0.3,0,0.601,0,0.9-0.1c0.3-0.1,0.6-0.1,0.8-0.2 c0.2,0.2,0.3,0.4,0.4,0.7c0.1,0.3,0.199,0.6,0.199,0.9c0,0.7-0.3,1.3-0.8,1.8s-1.5,0.7-2.899,0.7c-1.7,0-3-0.4-3.9-1.2 s-1.4-2-1.4-3.8V6c0.2-0.1,0.5-0.1,0.9-0.2c0.4-0.1,0.8-0.1,1.3-0.1c0.8,0,1.5,0.2,2,0.4C64.8,6.3,65,7,65,8v1.9h3.8 c0.101,0.2,0.2,0.5,0.3,0.8c0.101,0.3,0.2,0.7,0.2,1.1c0,0.7-0.1,1.2-0.399,1.5c-0.301,0.3-0.7,0.4-1.2,0.4H65.1L65,18L65,18z"/>
<path d="M78.9,23.3c-1.101,0-2.2-0.2-3.2-0.5c-1-0.3-1.8-0.8-2.5-1.4S71.9,20,71.5,19s-0.6-2.1-0.6-3.4c0-1.3,0.199-2.4,0.6-3.3 c0.4-0.9,1-1.7,1.6-2.3c0.7-0.6,1.4-1,2.301-1.3C76.3,8.4,77.2,8.3,78.1,8.3c1,0,2,0.2,2.801,0.5c0.8,0.3,1.6,0.7,2.199,1.3 c0.601,0.5,1.101,1.2,1.4,1.9c0.3,0.8,0.5,1.6,0.5,2.5c0,0.7-0.2,1.2-0.6,1.5c-0.4,0.3-0.9,0.6-1.5,0.7L75.8,17.8 c0.2,0.6,0.601,1.1,1.3,1.4c0.7,0.3,1.4,0.5,2.301,0.5c0.8,0,1.5-0.1,2.199-0.3c0.7-0.2,1.301-0.4,1.7-0.7 c0.3,0.2,0.601,0.5,0.8,0.8c0.2,0.3,0.301,0.7,0.301,1.1c0,0.9-0.4,1.5-1.2,1.9C82.6,22.8,81.9,23,81.1,23.2 C80.3,23.3,79.5,23.3,78.9,23.3z M78.1,12c-0.5,0-0.899,0.1-1.199,0.2C76.6,12.4,76.3,12.6,76.1,12.8C75.9,13,75.7,13.3,75.6,13.6 c-0.1,0.3-0.199,0.6-0.199,0.9l4.899-0.8c-0.1-0.4-0.3-0.8-0.6-1.2C79.3,12.2,78.8,12,78.1,12z"/>
<path d="M92.2,22.8c-0.2,0.1-0.5,0.1-0.9,0.2c-0.399,0.1-0.8,0.1-1.3,0.1c-0.4,0-0.8,0-1.1-0.1C88.6,22.9,88.3,22.8,88,22.7 c-0.2-0.2-0.4-0.4-0.5-0.7s-0.2-0.7-0.2-1.2v-8.7c0-0.4,0.101-0.8,0.2-1.1c0.2-0.3,0.4-0.6,0.7-0.9c0.3-0.2,0.7-0.5,1.1-0.7 c0.5-0.2,0.9-0.4,1.5-0.5C91.3,8.7,91.9,8.6,92.4,8.5C93,8.4,93.5,8.4,94.1,8.4c0.9,0,1.7,0.2,2.2,0.5c0.5,0.4,0.8,0.9,0.8,1.8 c0,0.3,0,0.5-0.1,0.8s-0.2,0.5-0.3,0.7c-0.4,0-0.8,0-1.2,0.1c-0.4,0-0.8,0.1-1.2,0.2c-0.399,0.1-0.8,0.2-1.1,0.2 c-0.4,0.1-0.7,0.2-0.9,0.3v9.8H92.2z"/>
</g>
</svg>
 
